<?xml version="1.0" encoding="UTF-8" standalone="no"?>
<!-- Created with Inkscape (http://www.inkscape.org/) -->

<svg
   xmlns:dc="http://purl.org/dc/elements/1.1/"
   xmlns:cc="http://creativecommons.org/ns#"
   xmlns:rdf="http://www.w3.org/1999/02/22-rdf-syntax-ns#"
   xmlns:svg="http://www.w3.org/2000/svg"
   xmlns="http://www.w3.org/2000/svg"
   xmlns:sodipodi="http://sodipodi.sourceforge.net/DTD/sodipodi-0.dtd"
   xmlns:inkscape="http://www.inkscape.org/namespaces/inkscape"
   width="42.333332mm"
   height="42.333332mm"
   viewBox="0 0 150 149.99999"
   id="svg5863"
   version="1.1"
   inkscape:version="0.91 r13725"
   sodipodi:docname="fa-soundcloud-square.svg">
  <defs
     id="defs5865" />
  <sodipodi:namedview
     id="base"
     pagecolor="#ffffff"
     bordercolor="#666666"
     borderopacity="1.0"
     inkscape:pageopacity="0.0"
     inkscape:pageshadow="2"
     inkscape:zoom="1.08"
     inkscape:cx="151.76097"
     inkscape:cy="172.3545"
     inkscape:document-units="px"
     inkscape:current-layer="layer1"
     showgrid="false"
     fit-margin-top="0"
     fit-margin-left="0"
     fit-margin-right="0"
     fit-margin-bottom="0"
     inkscape:window-width="1366"
     inkscape:window-height="740"
     inkscape:window-x="0"
     inkscape:window-y="28"
     inkscape:window-maximized="1" />
  <metadata
     id="metadata5868">
    <rdf:RDF>
      <cc:Work
         rdf:about="">
        <dc:format>image/svg+xml</dc:format>
        <dc:type
           rdf:resource="http://purl.org/dc/dcmitype/StillImage" />
        <dc:title></dc:title>
      </cc:Work>
    </rdf:RDF>
  </metadata>
  <g
     inkscape:label="Layer 1"
     inkscape:groupmode="layer"
     id="layer1"
     transform="translate(-216.42857,-628.79078)">
    <path
       style="opacity:1;fill:#000000;fill-opacity:1;fill-rule:nonzero;stroke:none;stroke-width:1;stroke-linecap:butt;stroke-linejoin:miter;stroke-miterlimit:4;stroke-dasharray:none;stroke-dashoffset:0;stroke-opacity:1"
       d="m 243.92857,628.79078 c -15.235,0 -27.5,12.265 -27.5,27.5 l 0,95 c 0,15.235 12.265,27.5 27.5,27.5 l 95,0 c 15.235,0 27.5,-12.265 27.5,-27.5 l 0,-95 c 0,-15.235 -12.265,-27.5 -27.5,-27.5 l -95,0 z m 62.00195,84.69336 c 14.64376,0 26.65096,11.22024 27.94141,25.52735 1.90763,-0.78549 3.98374,-1.23437 6.17189,-1.23437 8.75259,0 15.87695,7.12685 15.87695,15.93555 0,8.75258 -7.12436,15.82031 -15.87695,15.82031 l -44.09961,0 c -0.95381,-0.11225 -1.74024,-0.84165 -1.74024,-1.85156 l 0,-50.43946 c 0,-0.95381 0.33596,-1.40272 1.5703,-1.85157 3.08585,-1.23434 6.56545,-1.90625 10.15625,-1.90625 z m -14.92381,3.70314 c 0.28052,0 0.61736,0.111 0.84179,0.2793 0.50496,0.28052 0.84037,0.8418 0.89648,1.45897 l 0.78515,35.85157 -0.78515,12.96093 c 0,0.95382 -0.78447,1.74023 -1.73827,1.74023 -0.95381,0 -1.74078,-0.78641 -1.79689,-1.74023 l -0.33594,-6.39647 -0.33592,-6.56446 0.67186,-35.68359 0,-0.16798 c 0.0561,-0.50496 0.28109,-1.00906 0.67384,-1.3457 0.28052,-0.22442 0.6742,-0.39257 1.12305,-0.39257 z m -5.44336,3.08593 c 0.33663,0 0.6179,0.111 0.89842,0.27929 0.44886,0.28053 0.72853,0.7866 0.72853,1.34766 l 0.67382,32.87696 -0.61719,11.83985 -0.0566,1.3457 c 0,0.44885 -0.16727,0.84251 -0.50391,1.12305 -0.28052,0.28052 -0.67419,0.5039 -1.12304,0.5039 -0.50496,0 -0.95242,-0.22444 -1.28907,-0.61719 -0.22441,-0.28054 -0.33789,-0.61649 -0.33789,-0.95313 l 0,-0.0566 c -0.61717,-13.18501 -0.61718,-13.24026 -0.61718,-13.24026 l 0.56054,-32.48633 0.0566,-0.33593 c 0,-0.56107 0.28162,-1.06714 0.73047,-1.34767 0.28053,-0.16832 0.55985,-0.27928 0.89649,-0.27928 z m -16.26953,3.75782 c 0.72938,0 1.28959,0.61826 1.3457,1.34765 l 0.89844,29.34375 -0.89844,13.52149 c -0.0561,0.72937 -0.61632,1.28906 -1.3457,1.28906 -0.67329,0 -1.23491,-0.55969 -1.29102,-1.28906 l -0.78517,-13.52149 0.78517,-29.34375 c 0,-0.72939 0.61773,-1.34765 1.29102,-1.34765 z m 5.38475,0.67382 c 0.7855,0 1.40235,0.61685 1.40235,1.40234 l 0.8418,28.61524 -0.8418,13.4082 c 0,0.7855 -0.61685,1.40235 -1.40235,1.40235 -0.78549,0 -1.34624,-0.61685 -1.40234,-1.40235 l -0.78516,-13.4082 0.78516,-28.61524 c 0,-0.78549 0.61685,-1.40234 1.40234,-1.40234 z m -10.71484,0.39258 c 0.67328,0 1.17828,0.5611 1.23438,1.23437 l 1.00976,28.39063 -1.00976,13.57618 c -0.0561,0.67327 -0.5611,1.17967 -1.23438,1.17967 -0.61716,0 -1.12357,-0.5064 -1.17968,-1.17967 l -0.89648,-13.57618 0.89648,-28.39063 c 0,-0.67327 0.56252,-1.23437 1.17968,-1.23437 z m 16.1582,0.50585 c 0.8416,0 1.45758,0.67262 1.51368,1.57032 l 0.78711,27.60352 -0.78711,13.24218 c 0,0.8416 -0.67208,1.51368 -1.51368,1.51368 -0.84158,0 -1.51616,-0.67208 -1.57226,-1.51368 l -0.67187,-13.24218 0.67187,-27.60352 c 0.0561,-0.8977 0.73068,-1.57032 1.57226,-1.57032 z m -21.48827,1.90625 c 0.56106,0 1.06445,0.44925 1.06445,1.06641 l 1.06641,26.25782 -1.06641,13.68946 c 0,0.61716 -0.50339,1.0664 -1.06445,1.0664 -0.61718,0 -1.06694,-0.44924 -1.12305,-1.0664 l -0.89844,-13.68946 0.89844,-26.25782 c 0.0561,-0.61716 0.50587,-1.06641 1.12305,-1.06641 z m -5.16211,4.88282 c 0.50496,0 0.95312,0.44871 0.95312,1.00977 l 1.17774,21.32031 -1.17774,13.80079 c 0,0.56106 -0.44816,1.00976 -0.95312,1.00976 -0.56107,0 -0.95367,-0.4487 -1.00978,-1.00976 l -1.00975,-13.80079 1.00975,-21.32031 c 0.0561,-0.56106 0.44871,-1.00977 1.00978,-1.00977 z m -10.38087,7.46093 c 0.39275,0 0.72905,0.28163 0.78517,0.73048 l 1.29101,14.13867 -1.29101,13.68945 c -0.0561,0.44885 -0.39242,0.72851 -0.78517,0.72851 -0.39273,0 -0.72851,-0.27966 -0.72851,-0.72851 l -1.17774,-13.68945 1.17774,-14.13867 c 0,-0.44885 0.33578,-0.73048 0.72851,-0.73048 z m -5.10546,0.44923 c 0.33664,0 0.61719,0.28108 0.61719,0.67382 l 1.40234,13.7461 -1.40234,13.29687 c 0,0.33664 -0.28055,0.61719 -0.61719,0.61719 -0.33665,0 -0.61772,-0.28055 -0.67384,-0.61719 l -1.17772,-13.29687 1.17772,-13.7461 c 0.0561,-0.39274 0.33719,-0.67382 0.67384,-0.67382 z m 10.26758,0.44922 c 0.44885,0 0.84232,0.39295 0.89843,0.8418 l 1.17774,13.1289 -1.17774,13.80079 c -0.0561,0.50495 -0.44958,0.89842 -0.89843,0.89842 -0.44885,0 -0.8418,-0.39347 -0.8418,-0.89842 l -1.12109,-13.80079 1.12109,-13.1289 c 0,-0.44885 0.39295,-0.8418 0.8418,-0.8418 z m -15.37305,1.85155 c 0.28052,0 0.50443,0.22339 0.56055,0.50391 l 1.45897,11.61524 -1.45897,11.38868 c -0.0561,0.28052 -0.28003,0.50586 -0.56055,0.50586 -0.28053,0 -0.5039,-0.22588 -0.5039,-0.5625 l -1.29103,-11.33204 1.29103,-11.61524 c 0,-0.28052 0.22337,-0.50391 0.5039,-0.50391 z m -4.76953,4.43165 c 0.28053,0 0.44975,0.22532 0.50585,0.50585 l 1.1211,7.18165 -1.1211,7.06835 c -0.0561,0.28055 -0.22532,0.50586 -0.50585,0.50586 -0.28054,0 -0.4478,-0.22531 -0.5039,-0.50586 l -0.95509,-7.06835 0.95509,-7.18165 c 0.0561,-0.28053 0.22336,-0.50585 0.5039,-0.50585 z"
       id="rect11860-7-7"
       inkscape:connector-curvature="0"
       inkscape:export-xdpi="90"
       inkscape:export-ydpi="90" />
  </g>
</svg>
