<?xml version="1.0" encoding="UTF-8" standalone="no"?>
<!-- Created with Inkscape (http://www.inkscape.org/) -->

<svg
   xmlns:dc="http://purl.org/dc/elements/1.1/"
   xmlns:cc="http://creativecommons.org/ns#"
   xmlns:rdf="http://www.w3.org/1999/02/22-rdf-syntax-ns#"
   xmlns:svg="http://www.w3.org/2000/svg"
   xmlns="http://www.w3.org/2000/svg"
   xmlns:sodipodi="http://sodipodi.sourceforge.net/DTD/sodipodi-0.dtd"
   xmlns:inkscape="http://www.inkscape.org/namespaces/inkscape"
   width="42.333332mm"
   height="42.333332mm"
   viewBox="0 0 150 149.99999"
   id="svg19150"
   version="1.1"
   inkscape:version="0.91 r13725"
   sodipodi:docname="fa-patreon-square-alt-3.svg">
  <defs
     id="defs19152" />
  <sodipodi:namedview
     id="base"
     pagecolor="#ffffff"
     bordercolor="#666666"
     borderopacity="1.0"
     inkscape:pageopacity="0.0"
     inkscape:pageshadow="2"
     inkscape:zoom="0.7"
     inkscape:cx="17.002267"
     inkscape:cy="-29.513711"
     inkscape:document-units="px"
     inkscape:current-layer="layer1"
     showgrid="false"
     fit-margin-top="0"
     fit-margin-left="0"
     fit-margin-right="0"
     fit-margin-bottom="0"
     inkscape:window-width="1366"
     inkscape:window-height="740"
     inkscape:window-x="0"
     inkscape:window-y="28"
     inkscape:window-maximized="1" />
  <metadata
     id="metadata19155">
    <rdf:RDF>
      <cc:Work
         rdf:about="">
        <dc:format>image/svg+xml</dc:format>
        <dc:type
           rdf:resource="http://purl.org/dc/dcmitype/StillImage" />
        <dc:title></dc:title>
      </cc:Work>
    </rdf:RDF>
  </metadata>
  <g
     inkscape:label="Layer 1"
     inkscape:groupmode="layer"
     id="layer1"
     transform="translate(-85,-165.93363)">
    <path
       style="opacity:1;fill:#000000;fill-opacity:1;fill-rule:nonzero;stroke:none;stroke-width:1;stroke-linecap:butt;stroke-linejoin:miter;stroke-miterlimit:4;stroke-dasharray:none;stroke-dashoffset:0;stroke-opacity:1"
       d="m 112.5,165.93363 c -15.235,0 -27.5,12.265 -27.5,27.5 l 0,95 c 0,15.235 12.265,27.5 27.5,27.5 l 95,0 c 15.235,0 27.5,-12.265 27.5,-27.5 l 0,-95 c 0,-15.235 -12.265,-27.5 -27.5,-27.5 l -95,0 z m 25.48045,36.13478 72.84375,0.002 c -10.85678,29.52632 -15.4173,40.5997 -24.80078,66.0957 l -3.43163,0 c -3.42297,0 -3.45118,0.0937 -3.45118,0.0937 -1.12756,4.26657 -3.53276,6.49749 -7.26952,6.5 -3.20409,0.002 -5.04204,-1.17359 -6.54298,-4.18554 -1.7375,-3.53025 -1.43392,-9.45004 -0.0722,-12.17189 2.74694,-5.89985 11.40968,-6.06551 13.50976,-0.25781 l 0.49219,1.36524 3.4297,0 3.42968,0 -0.26758,-1.13476 c -1.51336,-6.43244 -6.06429,-9.69649 -13.5586,-9.72462 -4.76054,-0.0179 -7.77964,1.07699 -10.5,3.80664 -3.34034,3.35175 -4.782,7.69925 -4.4453,13.4043 0.41893,7.09871 4.08354,12.10411 9.99805,13.84375 l -22.18946,0.002 c 3.39491,-1.1214 6.2041,-3.61399 7.80274,-7.16405 2.58872,-5.82729 1.74847,-12.99755 -1.87892,-19.1465 -3.62738,-4.58896 -10.58652,-6.20035 -15.77538,-3.65234 -1.29828,0.63754 -2.73187,1.63219 -3.18555,2.20899 l -0.82423,1.04883 -0.11325,-7.56837 -0.11137,-7.56641 c -2.1485,0.007 -4.2968,0.0112 -6.44532,0.0112 4.39687,-11.69782 8.80032,-23.44168 13.35742,-35.80999 z m -13.91991,37.30859 0.0195,40.33007 -15.12109,0 c 5.16369,-13.92619 10.13129,-27.1089 15.10156,-40.33007 z m 15.22071,14.52538 c 1.8182,0.0736 3.66889,0.78195 5.18359,2.15039 3.45145,3.22491 3.88652,9.77416 1.92772,14.26954 -0.63461,1.29715 -1.74491,2.77896 -2.46679,3.29296 -1.84168,1.3114 -6.53378,1.53806 -8.3418,0.40235 -3.1869,-2.0019 -4.51016,-4.87175 -4.50391,-9.76757 0.004,-3.49903 0.52428,-5.33183 2.13673,-7.52344 1.44361,-1.9622 3.72676,-2.91893 6.06446,-2.82423 z m 44.50195,20.39259 c -0.66215,1.81276 -1.2633,3.44485 -1.97656,5.41015 l -5.29494,0 c 3.2005,-0.89065 5.63179,-2.69733 7.2715,-5.41015 z m -52.92189,1.5371 1.54689,1.50195 c 1.26687,1.23089 2.34037,1.89551 4.01171,2.37305 l -5.5586,0 0,-1.91991 0,-1.95509 z"
       id="rect11860-7-8-7-4"
       inkscape:connector-curvature="0" />
  </g>
</svg>
