<?xml version="1.0" encoding="UTF-8" standalone="no"?>
<!-- Created with Inkscape (http://www.inkscape.org/) -->

<svg
   xmlns:dc="http://purl.org/dc/elements/1.1/"
   xmlns:cc="http://creativecommons.org/ns#"
   xmlns:rdf="http://www.w3.org/1999/02/22-rdf-syntax-ns#"
   xmlns:svg="http://www.w3.org/2000/svg"
   xmlns="http://www.w3.org/2000/svg"
   xmlns:sodipodi="http://sodipodi.sourceforge.net/DTD/sodipodi-0.dtd"
   xmlns:inkscape="http://www.inkscape.org/namespaces/inkscape"
   width="42.333332mm"
   height="42.333332mm"
   viewBox="0 0 150 149.99999"
   id="svg18406"
   version="1.1"
   inkscape:version="0.91 r13725"
   sodipodi:docname="fa-bandcamp-square-alt-2.svg">
  <defs
     id="defs18408" />
  <sodipodi:namedview
     id="base"
     pagecolor="#ffffff"
     bordercolor="#666666"
     borderopacity="1.0"
     inkscape:pageopacity="0.0"
     inkscape:pageshadow="2"
     inkscape:zoom="1.4"
     inkscape:cx="-68.332331"
     inkscape:cy="21.313745"
     inkscape:document-units="px"
     inkscape:current-layer="layer1"
     showgrid="false"
     fit-margin-top="0"
     fit-margin-left="0"
     fit-margin-right="0"
     fit-margin-bottom="0"
     inkscape:window-width="1366"
     inkscape:window-height="740"
     inkscape:window-x="0"
     inkscape:window-y="28"
     inkscape:window-maximized="1" />
  <metadata
     id="metadata18411">
    <rdf:RDF>
      <cc:Work
         rdf:about="">
        <dc:format>image/svg+xml</dc:format>
        <dc:type
           rdf:resource="http://purl.org/dc/dcmitype/StillImage" />
        <dc:title />
      </cc:Work>
    </rdf:RDF>
  </metadata>
  <g
     inkscape:label="Layer 1"
     inkscape:groupmode="layer"
     id="layer1"
     transform="translate(220.06501,-229.50444)">
    <path
       style="opacity:1;fill:#000000;fill-opacity:1;fill-rule:nonzero;stroke:none;stroke-width:1;stroke-linecap:butt;stroke-linejoin:miter;stroke-miterlimit:4;stroke-dasharray:none;stroke-dashoffset:0;stroke-opacity:1"
       d="m -192.56501,229.50446 c -15.235,0 -27.5,12.265 -27.5,27.5 l 0,23.05859 19.17774,-0.0703 c 16.011,-0.0586 30.78198,-0.11176 32.82422,-0.11914 l 3.71289,-0.0137 0.13086,8.79492 0.13086,8.79492 0.95898,-1.21875 c 0.52728,-0.67035 2.19423,-1.82542 3.70313,-2.5664 6.03067,-2.9614 14.11809,-1.08935 18.33398,4.24414 2.89462,3.66197 3.98632,7.83493 3.71875,14.21484 -0.17846,4.25537 -0.43548,5.59705 -1.53516,8.03906 -3.01485,6.69502 -9.72729,10.1645 -17.05664,8.81641 -3.31876,-0.61041 -4.87107,-1.35046 -6.82617,-3.25 l -1.79687,-1.74609 0,2.27343 0,2.27344 -3.71289,-0.13867 -3.71485,-0.14063 -0.23828,-23.82812 -0.24023,-23.82813 -13.38282,23.70899 -13.38476,23.70703 -20.80274,0 0,23.99414 c 0,15.235 12.265,27.5 27.5,27.5 l 94.999999,0 c 15.235,0 27.5,-12.265 27.5,-27.5 l 0,-95 c 0,-15.235 -12.265,-27.5 -27.5,-27.5 l -94.999999,0 z m 76.12696,62.88867 c 8.71018,0.0326 14.0009,3.82671 15.75976,11.30274 l 0.30859,1.31836 -3.98437,0 -3.98633,0 -0.57227,-1.58594 c -2.44077,-6.74992 -12.50857,-6.5582 -15.70116,0.29883 -1.95754,3.7069 -1.93731,10.04347 0.082,14.14648 1.74442,3.50061 3.88155,4.86754 7.60547,4.86523 4.34301,-0.004 7.50851,-2.89909 8.4414,-7.65234 0,0 0.0412,-0.0117 4.01953,-0.0117 l 3.99219,0 -0.60352,2.27539 c -1.89924,7.17708 -6.66076,11.14185 -14.16406,11.79493 -1.44933,0.12614 -3.67912,0.0456 -4.95703,-0.17969 -8.04378,-1.418 -13.07883,-7.54559 -13.61133,-16.56836 -0.39131,-6.63061 1.28377,-11.68457 5.16602,-15.58008 3.16172,-3.17251 6.67217,-4.44459 12.20508,-4.42383 z m -38.36524,6.10352 c -2.71695,-0.11008 -5.37099,1.00266 -7.04883,3.2832 -1.87405,2.5472 -2.48011,4.67745 -2.48437,8.74414 -0.006,5.69012 1.5324,9.02488 5.23633,11.35156 5.30824,1.95095 9.85312,0.99663 12.5625,-4.29492 1.12611,-2.30166 1.34256,-3.35582 1.34765,-6.57617 0.007,-4.77199 -1.04793,-7.71135 -3.58984,-10.00781 -1.76046,-1.59046 -3.91025,-2.41439 -6.02344,-2.5 z"
       id="rect11860-7-39"
       inkscape:connector-curvature="0" />
  </g>
</svg>
