<?xml version="1.0" encoding="UTF-8" standalone="no"?>
<!-- Created with Inkscape (http://www.inkscape.org/) -->

<svg
   xmlns:dc="http://purl.org/dc/elements/1.1/"
   xmlns:cc="http://creativecommons.org/ns#"
   xmlns:rdf="http://www.w3.org/1999/02/22-rdf-syntax-ns#"
   xmlns:svg="http://www.w3.org/2000/svg"
   xmlns="http://www.w3.org/2000/svg"
   xmlns:sodipodi="http://sodipodi.sourceforge.net/DTD/sodipodi-0.dtd"
   xmlns:inkscape="http://www.inkscape.org/namespaces/inkscape"
   width="42.333305mm"
   height="42.333332mm"
   viewBox="0 0 149.99991 149.99999"
   id="svg11935"
   version="1.1"
   inkscape:version="0.91 r13725"
   sodipodi:docname="fa-patreon-square-alt-1.svg"
   inkscape:export-filename="/home/clarias/Documents/Projects/Development Projects/angellist/fa-angellist-square.png"
   inkscape:export-xdpi="90"
   inkscape:export-ydpi="90">
  <defs
     id="defs11937" />
  <sodipodi:namedview
     id="base"
     pagecolor="#ffffff"
     bordercolor="#666666"
     borderopacity="1.0"
     inkscape:pageopacity="0.0"
     inkscape:pageshadow="2"
     inkscape:zoom="1.4"
     inkscape:cx="109.20973"
     inkscape:cy="71.085082"
     inkscape:document-units="px"
     inkscape:current-layer="layer1"
     showgrid="false"
     inkscape:window-width="1366"
     inkscape:window-height="740"
     inkscape:window-x="0"
     inkscape:window-y="28"
     inkscape:window-maximized="1"
     fit-margin-top="0"
     fit-margin-left="0"
     fit-margin-right="0"
     fit-margin-bottom="0" />
  <metadata
     id="metadata11940">
    <rdf:RDF>
      <cc:Work
         rdf:about="">
        <dc:format>image/svg+xml</dc:format>
        <dc:type
           rdf:resource="http://purl.org/dc/dcmitype/StillImage" />
        <dc:title></dc:title>
      </cc:Work>
    </rdf:RDF>
  </metadata>
  <g
     inkscape:label="Layer 1"
     inkscape:groupmode="layer"
     id="layer1"
     transform="translate(-462.78031,-586.50434)">
    <path
       style="opacity:1;fill:#000000;fill-opacity:1;fill-rule:nonzero;stroke:none;stroke-width:1;stroke-linecap:butt;stroke-linejoin:miter;stroke-miterlimit:4;stroke-dasharray:none;stroke-dashoffset:0;stroke-opacity:1"
       d="m 490.28031,586.50434 c -15.235,0 -27.5,12.265 -27.5,27.5 l 0,95 c 0,12.2397 7.92078,22.55666 18.93359,26.14257 l 0,-76.02734 c 0,-30.95462 25.09422,-56.04882 56.04883,-56.04882 30.95463,0 56.04688,25.0942 56.04688,56.04882 0,30.95463 -25.09225,56.04688 -56.04688,56.04688 -0.7865,0 -1.571,-0.0186 -2.34961,-0.0508 l -23.46484,0 0,-55.95116 c 0,-14.21097 11.5195,-25.73633 25.73047,-25.73633 14.21096,0 25.73047,11.52536 25.73047,25.73633 0,14.21097 -11.51951,25.73047 -25.73047,25.73047 -5.19563,0 -10.03333,-1.54507 -14.07813,-4.19335 l 0,18.49803 c 2.71015,1.66768 8.89683,2.8449 16.1543,2.9043 22.84164,-1.04214 41.04492,-19.88548 41.04492,-42.98438 0,-23.76738 -19.26971,-43.03711 -43.03711,-43.03711 -23.76738,0 -43.03711,19.26973 -43.03711,43.03711 l 0,25.65235 0,17.33789 0,13.00585 -0.002,0 -0.0606,21.38868 90.61719,0 c 15.235,0 27.5,-12.265 27.5,-27.5 l 0,-95 c 0,-15.235 -12.265,-27.5 -27.5,-27.5 l -95,0 z m 45.67773,115.60547 c 0.59783,0.0247 1.20081,0.0469 1.80469,0.0469 0.6357,0 1.26557,-0.0195 1.89454,-0.0469 l -3.69923,0 z"
       id="rect11860-7-3"
       inkscape:connector-curvature="0" />
  </g>
</svg>
