<?xml version="1.0" encoding="UTF-8" standalone="no"?>
<!-- Created with Inkscape (http://www.inkscape.org/) -->

<svg
   xmlns:dc="http://purl.org/dc/elements/1.1/"
   xmlns:cc="http://creativecommons.org/ns#"
   xmlns:rdf="http://www.w3.org/1999/02/22-rdf-syntax-ns#"
   xmlns:svg="http://www.w3.org/2000/svg"
   xmlns="http://www.w3.org/2000/svg"
   xmlns:sodipodi="http://sodipodi.sourceforge.net/DTD/sodipodi-0.dtd"
   xmlns:inkscape="http://www.inkscape.org/namespaces/inkscape"
   width="141.11111mm"
   height="141.11111mm"
   viewBox="0 0 500.00002 500.00001"
   id="svg4134"
   version="1.1"
   inkscape:version="0.91 r13725"
   inkscape:export-filename="/home/clarias/Documents/Projects/Development Projects/Font-Awesome-Alternatives/showcase.png"
   inkscape:export-xdpi="90"
   inkscape:export-ydpi="90"
   sodipodi:docname="showcase_b.svg">
  <defs
     id="defs4136">
    <clipPath
       clipPathUnits="userSpaceOnUse"
       id="clipPath5636-4">
      <path
         d="m 54.199,787.701 487,0 0,-711 -487,0 0,711 z"
         id="path5638-0"
         inkscape:connector-curvature="0" />
    </clipPath>
    <clipPath
       clipPathUnits="userSpaceOnUse"
       id="clipPath5642-8">
      <path
         d="m 303.898,401.502 12.602,0 0,-14 -12.602,0 0,14 z"
         id="path5644-2"
         inkscape:connector-curvature="0" />
    </clipPath>
  </defs>
  <sodipodi:namedview
     id="base"
     pagecolor="#ffffff"
     bordercolor="#666666"
     borderopacity="1.0"
     inkscape:pageopacity="0.0"
     inkscape:pageshadow="2"
     inkscape:zoom="0.54"
     inkscape:cx="491.82486"
     inkscape:cy="184.51414"
     inkscape:document-units="px"
     inkscape:current-layer="layer1"
     showgrid="false"
     inkscape:snap-grids="true"
     fit-margin-top="0"
     fit-margin-right="0"
     fit-margin-left="0"
     fit-margin-bottom="0"
     inkscape:window-width="1366"
     inkscape:window-height="706"
     inkscape:window-x="0"
     inkscape:window-y="25"
     inkscape:window-maximized="1">
    <inkscape:grid
       type="xygrid"
       id="grid4682"
       originx="458.1917"
       originy="930.80342" />
  </sodipodi:namedview>
  <metadata
     id="metadata4139">
    <rdf:RDF>
      <cc:Work
         rdf:about="">
        <dc:format>image/svg+xml</dc:format>
        <dc:type
           rdf:resource="http://purl.org/dc/dcmitype/StillImage" />
        <dc:title></dc:title>
      </cc:Work>
    </rdf:RDF>
  </metadata>
  <g
     inkscape:label="Layer 1"
     inkscape:groupmode="layer"
     id="layer1"
     transform="translate(458.19168,-1483.1656)">
    <rect
       style="opacity:1;fill:#f2f2f2;fill-opacity:1;fill-rule:evenodd;stroke:none;stroke-width:1;stroke-miterlimit:4;stroke-dasharray:none;stroke-dashoffset:0;stroke-opacity:1"
       id="rect4152"
       width="500"
       height="500"
       x="-458.19168"
       y="1483.1656" />
    <g
       id="g4154"
       transform="matrix(0.76923077,0,0,0.76923077,-89.656578,466.03529)">
      <path
         inkscape:export-filename="/home/clarias/Documents/Projects/Development Projects/angellist/fa-angellist-square"
         inkscape:export-ydpi="90"
         inkscape:export-xdpi="90"
         inkscape:connector-curvature="0"
         id="rect11860"
         d="m -382.29564,1381.9916 c -15.23501,0 -27.50001,12.265 -27.50001,27.5 l 0,95 c 0,15.235 12.265,27.5 27.50001,27.5 l 94.99999,0 c 15.235,0 27.5,-12.265 27.5,-27.5 l 0,-95 c 0,-15.235 -12.265,-27.5 -27.5,-27.5 l -94.99999,0 z m 34.51757,24.9043 c 7.8125,0 16.68668,28.1248 18.58399,33.7051 2.45536,-6.1384 10.15596,-31.8633 18.86131,-31.8633 5.46876,0 8.53712,4.3533 8.53712,9.543 0,5.9152 -6.5851,24.3298 -8.87305,30.6914 9.375,2.288 10.71485,9.8764 10.71485,18.3027 0,22.3215 -14.23047,39.6211 -37.27734,39.6211 -4.24107,0 -8.4255,-0.837 -12.44335,-2.3437 -10.60269,-4.0179 -20.48048,-14.8993 -20.48048,-26.6738 0,-7.2545 2.78963,-12.0528 9.98829,-14.0059 -0.61384,-1.6183 -1.5625,-4.0748 -1.5625,-5.8047 0,-4.5759 5.637,-10.2676 10.21289,-10.2676 1.33928,0 2.67857,0.3915 3.90625,0.8379 -2.34375,-6.6406 -9.0957,-25.3348 -9.0957,-31.6406 0,-5.6362 2.84513,-10.1016 8.92772,-10.1016 z m -0.61327,6.3614 c -1.5067,0 -2.17579,1.7868 -2.17579,3.0703 0,5.6919 6.75251,23.4361 8.87305,29.0722 0.78125,-0.4464 1.78571,-0.5566 2.73437,-0.5566 1.33929,0 2.84432,0.1677 4.1836,0.2793 l -6.75196,-19.5879 c -0.72544,-2.1205 -3.96149,-12.2773 -6.86327,-12.2773 z m 38.05857,2.1777 c -3.125,0 -6.4746,10.1551 -7.25585,12.5547 l -6.36132,18.3047 6.52929,1.1718 c 1.67411,-4.5758 9.20704,-25.1674 9.20704,-28.9062 0,-1.3951 -0.44504,-3.125 -2.11916,-3.125 z m -25.61521,35.6582 c -0.78125,0 -2.12054,0.055 -2.73438,0.6133 -0.66965,0.279 -0.66797,1.3393 -0.66797,1.9531 0,8.538 18.02456,7.7559 23.43749,7.7559 1.06027,0 1.56082,0.2793 2.23047,1.0605 0.72545,0.8929 0.94894,1.9543 1.06055,3.0703 -1.4509,1.4509 -3.4601,2.2883 -5.35742,3.0137 -1.84153,0.6696 -3.62695,1.3945 -5.18945,2.5664 -4.29688,3.125 -8.5371,8.4813 -8.5371,14.0059 0,3.4598 2.06445,6.4182 2.06445,9.8222 0,0.056 -0.39063,1.2838 -0.39063,1.4512 -6.36161,-0.4464 -7.92327,-6.7533 -8.14649,-12.0547 -0.66963,0.1674 -1.56361,0.1114 -2.28906,0.1114 0.11163,0.3906 0.11138,0.7812 0.11138,1.1719 0,4.0736 -3.62695,7.0312 -7.5332,7.0312 -6.02679,0 -14.00587,-7.0862 -14.00587,-13.2246 0,-1.6741 0.72574,-2.6222 1.8418,-3.7383 1.11608,1.3951 2.28739,2.7894 3.34767,4.2403 1.6183,2.1763 4.40847,5.8046 7.42187,5.8046 0.78125,0 2.2871,-0.6704 2.2871,-1.6191 0,-2.5112 -9.15066,-14.2851 -11.38281,-14.2851 -3.51563,0 -5.41406,4.6314 -5.41406,7.5332 0,2.0089 0.67105,3.9612 1.39648,5.8027 4.40849,10.8817 14.34013,17.2441 25.94727,17.2441 8.48215,0 15.6264,-3.2363 21.31835,-9.4863 6.02679,-6.6964 8.48048,-14.9554 8.48048,-23.8281 0,-3.125 0.0569,-8.0921 -2.39845,-10.3242 -4.68751,-4.1295 -20.59262,-5.6914 -26.89842,-5.6914 z m -15.06641,3.459 c -1.5067,0 -3.96094,2.6222 -3.96094,4.1289 0,4.0737 10.93611,19.0859 15.00976,19.0859 1.11608,0 2.06446,-1.2279 2.06446,-2.2324 0,-1.2835 -1.28292,-4.4637 -1.78516,-5.6914 -1.45089,-3.7388 -6.75222,-15.291 -11.32812,-15.291 z m 16.74218,11.7754 c 0.61384,1.6183 1.28182,3.236 1.83985,4.9101 1.22768,-1.3951 2.512,-2.678 3.96289,-3.7382 -1.95312,-0.3907 -3.90541,-0.5581 -5.80274,-1.1719 z"
         style="opacity:1;fill:#000000;fill-opacity:1;fill-rule:nonzero;stroke:none;stroke-width:1;stroke-linecap:butt;stroke-linejoin:miter;stroke-miterlimit:4;stroke-dasharray:none;stroke-dashoffset:0;stroke-opacity:1" />
      <path
         inkscape:connector-curvature="0"
         id="rect11860-7-8"
         d="m -201.59575,1381.9916 c -15.235,0 -27.5,12.265 -27.5,27.5 l 0,95 c 0,15.235 12.265,27.5 27.5,27.5 l 95.00001,0 c 15.234998,0 27.499998,-12.265 27.499998,-27.5 l 0,-95 c 0,-15.235 -12.265,-27.5 -27.499998,-27.5 l -95.00001,0 z m 9.09375,45.1153 0.17969,12.0996 0.17969,12.0996 1.32031,-1.6758 c 0.72546,-0.9223 3.01775,-2.5118 5.09375,-3.5312 8.2972,-4.0744 19.42426,-1.4982 25.22462,5.8398 5.80037,9.8325 7.14535,21.2991 3.00586,30.6172 -4.14793,9.2112 -13.38286,13.9856 -23.46681,12.1309 -4.56607,-0.8399 -6.70463,-1.8573 -9.39453,-4.4707 l -2.4707,-2.4024 0,3.1289 0,3.127 -10.84375,-0.01 -0.0332,-66.9297 c 3.73541,0 7.46969,-0.011 11.20507,-0.023 z m 65.91993,17.2441 c 11.98375,0.045 19.25978,5.265 21.67969,15.5508 l 0.42774,1.8125 -5.48438,0 -5.48243,0 -0.78906,-2.1816 c -3.3581,-9.2868 -17.20907,-9.022 -21.60156,0.4121 -2.17731,4.3524 -2.66484,13.8179 0.11328,19.4629 2.40004,4.8162 5.34136,6.6965 10.46484,6.6933 5.97525,-0.01 9.81999,-3.5721 11.62305,-10.3945 0,0 0.046,-0.1484 5.51953,-0.1484 l 5.4922,0 -0.82813,3.1308 c -2.61304,9.8745 -9.16499,15.328 -19.48829,16.2266 -1.99404,0.1735 -5.06407,0.064 -6.82227,-0.2461 -11.06689,-1.9509 -17.99196,-10.3831 -18.72459,-22.7969 -0.53838,-9.1226 1.76609,-16.076 7.10741,-21.4355 4.34999,-4.3649 9.1806,-6.1145 16.79297,-6.086 z m -52.78711,8.3965 c -3.73807,-0.1514 -7.38884,1.3799 -9.69727,4.5176 -2.57837,3.5045 -3.41015,6.4342 -3.41601,12.0293 -0.008,7.8286 2.10711,12.418 7.20312,15.6191 2.89105,1.8161 10.39491,1.4544 13.33984,-0.6426 1.15431,-0.8219 2.92855,-3.1914 3.94337,-5.2656 3.13218,-7.1883 2.437,-17.6596 -3.08204,-22.8164 -2.42208,-2.1882 -5.38363,-3.3236 -8.29101,-3.4414 z"
         style="opacity:1;fill:#000000;fill-opacity:1;fill-rule:nonzero;stroke:none;stroke-width:1;stroke-linecap:butt;stroke-linejoin:miter;stroke-miterlimit:4;stroke-dasharray:none;stroke-dashoffset:0;stroke-opacity:1" />
      <path
         inkscape:connector-curvature="0"
         id="rect11860-7-39"
         d="m -201.59575,1564.9549 c -15.235,0 -27.5,12.265 -27.5,27.5 l 0,23.0586 19.17774,-0.07 c 16.011,-0.059 30.78198,-0.1117 32.82422,-0.1191 l 3.71289,-0.014 0.13086,8.7949 0.13086,8.7949 0.95898,-1.2187 c 0.52728,-0.6704 2.19423,-1.8254 3.70313,-2.5664 6.03067,-2.9614 14.11809,-1.0894 18.33398,4.2441 2.89462,3.662 3.98632,7.8349 3.71875,14.2149 -0.17846,4.2553 -0.43548,5.597 -1.53516,8.039 -3.01485,6.695 -9.72729,10.1645 -17.05664,8.8164 -3.31876,-0.6104 -4.87107,-1.3504 -6.82617,-3.25 l -1.79687,-1.7461 0,2.2735 0,2.2734 -3.71289,-0.1387 -3.71485,-0.1406 -0.23828,-23.8281 -0.24023,-23.8281 -13.38282,23.7089 -13.38476,23.7071 -20.80274,0 0,23.9941 c 0,15.235 12.265,27.5 27.5,27.5 l 95,0 c 15.235008,0 27.500008,-12.265 27.500008,-27.5 l 0,-95 c 0,-15.235 -12.265,-27.5 -27.500008,-27.5 l -95,0 z m 76.12696,62.8887 c 8.71018,0.033 14.0009,3.8267 15.75976,11.3027 l 0.30859,1.3184 -3.98437,0 -3.98633,0 -0.57227,-1.5859 c -2.44077,-6.75 -12.50857,-6.5582 -15.70116,0.2988 -1.95754,3.7069 -1.93731,10.0435 0.082,14.1465 1.74442,3.5006 3.88155,4.8675 7.60547,4.8652 4.34301,0 7.50851,-2.8991 8.4414,-7.6523 0,0 0.0412,-0.012 4.01953,-0.012 l 3.99219,0 -0.60352,2.2754 c -1.89924,7.177 -6.66076,11.1418 -14.16406,11.7949 -1.44933,0.1261 -3.67912,0.046 -4.95703,-0.1797 -8.04378,-1.418 -13.07883,-7.5456 -13.61133,-16.5684 -0.39131,-6.6306 1.28377,-11.6845 5.16602,-15.58 3.16172,-3.1726 6.67217,-4.4446 12.20508,-4.4239 z m -38.36524,6.1035 c -2.71695,-0.1101 -5.37099,1.0027 -7.04883,3.2832 -1.87405,2.5472 -2.48011,4.6775 -2.48437,8.7442 -0.006,5.6901 1.5324,9.0248 5.23633,11.3515 5.30824,1.951 9.85312,0.9967 12.5625,-4.2949 1.12611,-2.3017 1.34256,-3.3558 1.34765,-6.5762 0.007,-4.772 -1.04793,-7.7113 -3.58984,-10.0078 -1.76046,-1.5904 -3.91025,-2.4144 -6.02344,-2.5 z"
         style="opacity:1;fill:#000000;fill-opacity:1;fill-rule:nonzero;stroke:none;stroke-width:1;stroke-linecap:butt;stroke-linejoin:miter;stroke-miterlimit:4;stroke-dasharray:none;stroke-dashoffset:0;stroke-opacity:1" />
      <g
         inkscape:label="Layer 1"
         id="layer1-1"
         transform="translate(-314.09574,1596.6137)">
        <path
           style="opacity:1;fill:#000000;fill-opacity:1;fill-rule:nonzero;stroke:none;stroke-width:1;stroke-linecap:butt;stroke-linejoin:miter;stroke-miterlimit:4;stroke-dasharray:none;stroke-dashoffset:0;stroke-opacity:1"
           d="m 112.5,165.93363 c -15.235,0 -27.5,12.265 -27.5,27.5 l 0,95 c 0,15.235 12.265,27.5 27.5,27.5 l 95,0 c 15.235,0 27.5,-12.265 27.5,-27.5 l 0,-95 c 0,-15.235 -12.265,-27.5 -27.5,-27.5 l -95,0 z m 25.48045,36.13478 72.84375,0.002 c -10.85678,29.52632 -15.4173,40.5997 -24.80078,66.0957 l -3.43163,0 c -3.42297,0 -3.45118,0.0937 -3.45118,0.0937 -1.12756,4.26657 -3.53276,6.49749 -7.26952,6.5 -3.20409,0.002 -5.04204,-1.17359 -6.54298,-4.18554 -1.7375,-3.53025 -1.43392,-9.45004 -0.0722,-12.17189 2.74694,-5.89985 11.40968,-6.06551 13.50976,-0.25781 l 0.49219,1.36524 3.4297,0 3.42968,0 -0.26758,-1.13476 c -1.51336,-6.43244 -6.06429,-9.69649 -13.5586,-9.72462 -4.76054,-0.0179 -7.77964,1.07699 -10.5,3.80664 -3.34034,3.35175 -4.782,7.69925 -4.4453,13.4043 0.41893,7.09871 4.08354,12.10411 9.99805,13.84375 l -22.18946,0.002 c 3.39491,-1.1214 6.2041,-3.61399 7.80274,-7.16405 2.58872,-5.82729 1.74847,-12.99755 -1.87892,-19.1465 -3.62738,-4.58896 -10.58652,-6.20035 -15.77538,-3.65234 -1.29828,0.63754 -2.73187,1.63219 -3.18555,2.20899 l -0.82423,1.04883 -0.11325,-7.56837 -0.11137,-7.56641 c -2.1485,0.007 -4.2968,0.0112 -6.44532,0.0112 4.39687,-11.69782 8.80032,-23.44168 13.35742,-35.80999 z m -13.91991,37.30859 0.0195,40.33007 -15.12109,0 c 5.16369,-13.92619 10.13129,-27.1089 15.10156,-40.33007 z m 15.22071,14.52538 c 1.8182,0.0736 3.66889,0.78195 5.18359,2.15039 3.45145,3.22491 3.88652,9.77416 1.92772,14.26954 -0.63461,1.29715 -1.74491,2.77896 -2.46679,3.29296 -1.84168,1.3114 -6.53378,1.53806 -8.3418,0.40235 -3.1869,-2.0019 -4.51016,-4.87175 -4.50391,-9.76757 0.004,-3.49903 0.52428,-5.33183 2.13673,-7.52344 1.44361,-1.9622 3.72676,-2.91893 6.06446,-2.82423 z m 44.50195,20.39259 c -0.66215,1.81276 -1.2633,3.44485 -1.97656,5.41015 l -5.29494,0 c 3.2005,-0.89065 5.63179,-2.69733 7.2715,-5.41015 z m -52.92189,1.5371 1.54689,1.50195 c 1.26687,1.23089 2.34037,1.89551 4.01171,2.37305 l -5.5586,0 0,-1.91991 0,-1.95509 z"
           id="rect11860-7-8-7-4"
           inkscape:connector-curvature="0" />
      </g>
      <path
         inkscape:connector-curvature="0"
         id="rect11860-7-0"
         d="m -20.895847,1381.9916 c -15.235,0 -27.5,12.265 -27.5,27.5 l 0,95 c 0,15.235 12.265,27.5 27.5,27.5 l 95.000001,0 c 15.235,0 27.500006,-12.265 27.500006,-27.5 l 0,-95 c 0,-15.235 -12.265006,-27.5 -27.500006,-27.5 l -95.000001,0 z m 61.097661,21.4121 19.46289,0 0,19.5918 -19.5918,37.6309 1.55078,2.0058 18.04102,0 0,26.8321 -32.78321,0 -2.84375,1.9414 -9.18164,17.6504 c -0.0646,0 -1.81012,1.8121 -1.93945,1.9414 l -19.4628925,0 0,-19.5918 19.5918025,-37.6973 -1.55273,-1.9394 -18.0390725,0 0,-26.834 32.7812525,0 2.8457,-1.9395 9.18164,-17.6523 c 0.0646,0 1.81014,-1.8102 1.93946,-1.9395 z"
         style="opacity:1;fill:#000000;fill-opacity:1;fill-rule:nonzero;stroke:none;stroke-width:1;stroke-linecap:butt;stroke-linejoin:miter;stroke-miterlimit:4;stroke-dasharray:none;stroke-dashoffset:0;stroke-opacity:1" />
      <g
         inkscape:export-ydpi="90"
         inkscape:export-xdpi="90"
         style="fill:#000000;fill-opacity:1"
         id="g5632"
         transform="matrix(95.611472,0,0,-95.611472,-29389.168,39170.201)">
        <g
           style="fill:#000000;fill-opacity:1"
           clip-path="url(#clipPath5636-4)"
           id="g5634">
          <g
             style="fill:#000000;fill-opacity:1"
             clip-path="url(#clipPath5642-8)"
             id="g5640">
            <text
               id="text5646"
               style="font-variant:normal;font-size:1.83032429px;font-family:'OTS derived font';-inkscape-font-specification:OTS-derived-font;writing-mode:lr-tb;fill:#000000;fill-opacity:1;fill-rule:nonzero;stroke:none"
               transform="matrix(1,0,0,-1,306.87502,391.87501)">
              <tspan
                 style="font-style:normal;font-variant:normal;font-weight:normal;font-stretch:normal;font-size:1.83032429px;font-family:FontAwesome;-inkscape-font-specification:FontAwesome;fill:#000000;fill-opacity:1"
                 id="tspan5648"
                 y="0"
                 x="0"></tspan>
            </text>
          </g>
        </g>
      </g>
      <path
         inkscape:connector-curvature="0"
         id="rect11860-7-3-9"
         d="m -382.29565,1762.5473 c -15.235,0 -27.5,12.265 -27.5,27.5 l 0,95 c 0,15.235 12.265,27.5 27.5,27.5 l 4.58399,0 0,-34.3945 0,-17.3379 0,-25.6543 c 0,-23.7674 19.26972,-43.0371 43.0371,-43.0371 23.7674,0 43.03711,19.2697 43.03711,43.0371 0,23.0989 -18.20133,41.9442 -41.04296,42.9863 -7.25747,-0.059 -13.4461,-1.2386 -16.15625,-2.9062 l 0,-18.4961 c 4.0448,2.6483 8.8825,4.1914 14.07812,4.1914 14.21096,0 25.73048,-11.5176 25.73048,-25.7285 0,-14.211 -11.51952,-25.7383 -25.73048,-25.7383 -14.21096,0 -25.73047,11.5273 -25.73047,25.7383 l 0,77.3398 73.19336,0 c 15.235,0 27.5,-12.265 27.5,-27.5 l 0,-95 c 0,-15.235 -12.265,-27.5 -27.5,-27.5 l -95,0 z m 45.81641,115.6055 3.70118,0 c -0.62899,0.027 -1.2608,0.045 -1.8965,0.045 -0.60388,0 -1.20685,-0.02 -1.80468,-0.045 z"
         style="opacity:1;fill:#000000;fill-opacity:1;fill-rule:nonzero;stroke:none;stroke-width:1;stroke-linecap:butt;stroke-linejoin:miter;stroke-miterlimit:4;stroke-dasharray:none;stroke-dashoffset:0;stroke-opacity:1" />
      <path
         inkscape:connector-curvature="0"
         id="rect11860-7-3"
         d="m -382.2956,1564.9551 c -15.235,0 -27.5,12.265 -27.5,27.5 l 0,95 c 0,12.2397 7.92078,22.5567 18.93359,26.1426 l 0,-76.0274 c 0,-30.9546 25.09422,-56.0488 56.04883,-56.0488 30.95463,0 56.04688,25.0942 56.04688,56.0488 0,30.9547 -25.09225,56.0469 -56.04688,56.0469 -0.7865,0 -1.571,-0.019 -2.34961,-0.051 l -23.46484,0 0,-55.9511 c 0,-14.211 11.5195,-25.7364 25.73047,-25.7364 14.21096,0 25.73047,11.5254 25.73047,25.7364 0,14.2109 -11.51951,25.7304 -25.73047,25.7304 -5.19563,0 -10.03333,-1.545 -14.07813,-4.1933 l 0,18.498 c 2.71015,1.6677 8.89683,2.8449 16.1543,2.9043 22.84164,-1.0421 41.04492,-19.8855 41.04492,-42.9844 0,-23.7673 -19.26971,-43.0371 -43.03711,-43.0371 -23.76738,0 -43.03711,19.2698 -43.03711,43.0371 l 0,25.6524 0,17.3379 0,13.0058 -0.002,0 -0.0606,21.3887 90.61719,0 c 15.235,0 27.5,-12.265 27.5,-27.5 l 0,-95 c 0,-15.235 -12.265,-27.5 -27.5,-27.5 l -95,0 z m 45.67773,115.6055 c 0.59783,0.025 1.20081,0.047 1.80469,0.047 0.6357,0 1.26557,-0.019 1.89454,-0.047 l -3.69923,0 z"
         style="opacity:1;fill:#000000;fill-opacity:1;fill-rule:nonzero;stroke:none;stroke-width:1;stroke-linecap:butt;stroke-linejoin:miter;stroke-miterlimit:4;stroke-dasharray:none;stroke-dashoffset:0;stroke-opacity:1" />
      <path
         inkscape:export-ydpi="90"
         inkscape:export-xdpi="90"
         inkscape:connector-curvature="0"
         id="rect11860-7-7"
         d="m -20.895843,1762.5473 c -15.235,0 -27.5,12.265 -27.5,27.5 l 0,95 c 0,15.235 12.265,27.5 27.5,27.5 l 95,0 c 15.235,0 27.500003,-12.265 27.500003,-27.5 l 0,-95 c 0,-15.235 -12.265003,-27.5 -27.500003,-27.5 l -95,0 z m 62.00195,84.6934 c 14.64376,0 26.65096,11.2202 27.94141,25.5273 1.90763,-0.7855 3.98374,-1.2343 6.171889,-1.2343 8.752591,0 15.87695,7.1268 15.87695,15.9355 0,8.7526 -7.12436,15.8203 -15.87695,15.8203 l -44.099609,0 c -0.95381,-0.1122 -1.74024,-0.8416 -1.74024,-1.8515 l 0,-50.4395 c 0,-0.9538 0.33596,-1.4027 1.5703,-1.8516 3.08585,-1.2343 6.56545,-1.9062 10.15625,-1.9062 z m -14.92381,3.7031 c 0.28052,0 0.617359,0.111 0.841789,0.2793 0.50496,0.2805 0.84037,0.8418 0.89648,1.459 l 0.78515,35.8516 -0.78515,12.9609 c 0,0.9538 -0.78447,1.7402 -1.738269,1.7402 -0.95381,0 -1.74078,-0.7864 -1.79689,-1.7402 l -0.335941,-6.3965 -0.335919,-6.5644 0.67186,-35.6836 0,-0.168 c 0.0561,-0.505 0.281089,-1.0091 0.67384,-1.3457 0.28052,-0.2244 0.6742,-0.3926 1.12305,-0.3926 z m -5.44336,3.0859 c 0.33663,0 0.617899,0.111 0.89842,0.2793 0.448859,0.2806 0.728529,0.7866 0.728529,1.3477 l 0.67382,32.877 -0.61719,11.8398 -0.0566,1.3457 c 0,0.4489 -0.16727,0.8425 -0.50391,1.1231 -0.28052,0.2805 -0.67419,0.5039 -1.12304,0.5039 -0.50496,0 -0.95242,-0.2245 -1.28907,-0.6172 -0.22441,-0.2806 -0.33789,-0.6165 -0.33789,-0.9532 l 0,-0.057 c -0.61717,-13.185 -0.61718,-13.2402 -0.61718,-13.2402 l 0.56054,-32.4864 0.0566,-0.3359 c 0,-0.5611 0.28162,-1.0671 0.73047,-1.3477 0.28053,-0.1683 0.55985,-0.2792 0.89649,-0.2792 z m -16.2695305,3.7579 c 0.72938,0 1.28959,0.6182 1.3457,1.3476 l 0.89844,29.3438 -0.89844,13.5215 c -0.0561,0.7293 -0.61632,1.289 -1.3457,1.289 -0.67329,0 -1.23491,-0.5597 -1.29102,-1.289 l -0.78517,-13.5215 0.78517,-29.3438 c 0,-0.7294 0.61773,-1.3476 1.29102,-1.3476 z m 5.38475,0.6738 c 0.7855005,0 1.4023505,0.6168 1.4023505,1.4023 l 0.8418,28.6153 -0.8418,13.4082 c 0,0.7855 -0.61685,1.4023 -1.4023505,1.4023 -0.78549,0 -1.34624,-0.6168 -1.40234,-1.4023 l -0.78516,-13.4082 0.78516,-28.6153 c 0,-0.7855 0.61685,-1.4023 1.40234,-1.4023 z m -10.71484,0.3926 c 0.67328,0 1.17828,0.5611 1.23438,1.2343 l 1.00976,28.3907 -1.00976,13.5761 c -0.0561,0.6733 -0.5611,1.1797 -1.23438,1.1797 -0.61716,0 -1.12357,-0.5064 -1.17968,-1.1797 l -0.89648,-13.5761 0.89648,-28.3907 c 0,-0.6732 0.56252,-1.2343 1.17968,-1.2343 z m 16.1582005,0.5058 c 0.8416,0 1.45758,0.6726 1.51368,1.5703 l 0.78711,27.6036 -0.78711,13.2421 c 0,0.8416 -0.67208,1.5137 -1.51368,1.5137 -0.84158,0 -1.51616,-0.6721 -1.57226,-1.5137 l -0.671871,-13.2421 0.671871,-27.6036 c 0.0561,-0.8977 0.73068,-1.5703 1.57226,-1.5703 z m -21.4882705,1.9063 c 0.56106,0 1.06445,0.4492 1.06445,1.0664 l 1.06641,26.2578 -1.06641,13.6895 c 0,0.6171 -0.50339,1.0664 -1.06445,1.0664 -0.61718,0 -1.06694,-0.4493 -1.12305,-1.0664 l -0.89844,-13.6895 0.89844,-26.2578 c 0.0561,-0.6172 0.50587,-1.0664 1.12305,-1.0664 z m -5.1621095,4.8828 c 0.50496,0 0.95312,0.4487 0.95312,1.0098 l 1.1777395,21.3203 -1.1777395,13.8008 c 0,0.561 -0.44816,1.0097 -0.95312,1.0097 -0.56107,0 -0.95367,-0.4487 -1.00978,-1.0097 l -1.00975,-13.8008 1.00975,-21.3203 c 0.0561,-0.5611 0.44871,-1.0098 1.00978,-1.0098 z m -10.38087,7.4609 c 0.39275,0 0.72905,0.2816 0.78517,0.7305 l 1.29101,14.1387 -1.29101,13.6894 c -0.0561,0.4489 -0.39242,0.7285 -0.78517,0.7285 -0.39273,0 -0.72851,-0.2796 -0.72851,-0.7285 l -1.17774,-13.6894 1.17774,-14.1387 c 0,-0.4489 0.33578,-0.7305 0.72851,-0.7305 z m -5.10546,0.4492 c 0.33664,0 0.61719,0.2811 0.61719,0.6739 l 1.40234,13.7461 -1.40234,13.2968 c 0,0.3367 -0.28055,0.6172 -0.61719,0.6172 -0.33665,0 -0.61772,-0.2805 -0.67384,-0.6172 l -1.17772,-13.2968 1.17772,-13.7461 c 0.0561,-0.3928 0.33719,-0.6739 0.67384,-0.6739 z m 10.26758,0.4493 c 0.44885,0 0.84232,0.3929 0.89843,0.8418 l 1.17774,13.1289 -1.17774,13.8008 c -0.0561,0.5049 -0.44958,0.8984 -0.89843,0.8984 -0.44885,0 -0.8418,-0.3935 -0.8418,-0.8984 l -1.12109,-13.8008 1.12109,-13.1289 c 0,-0.4489 0.39295,-0.8418 0.8418,-0.8418 z m -15.37305,1.8515 c 0.28052,0 0.50443,0.2234 0.56055,0.5039 l 1.45897,11.6153 -1.45897,11.3886 c -0.0561,0.2806 -0.28003,0.5059 -0.56055,0.5059 -0.28053,0 -0.5039,-0.2259 -0.5039,-0.5625 l -1.29103,-11.332 1.29103,-11.6153 c 0,-0.2805 0.22337,-0.5039 0.5039,-0.5039 z m -4.76953,4.4317 c 0.28053,0 0.44975,0.2253 0.50585,0.5058 l 1.1211,7.1817 -1.1211,7.0683 c -0.0561,0.2806 -0.22532,0.5059 -0.50585,0.5059 -0.28054,0 -0.4478,-0.2253 -0.5039,-0.5059 l -0.95509,-7.0683 0.95509,-7.1817 c 0.0561,-0.2805 0.22336,-0.5058 0.5039,-0.5058 z"
         style="opacity:1;fill:#000000;fill-opacity:1;fill-rule:nonzero;stroke:none;stroke-width:1;stroke-linecap:butt;stroke-linejoin:miter;stroke-miterlimit:4;stroke-dasharray:none;stroke-dashoffset:0;stroke-opacity:1" />
    </g>
  </g>
</svg>
