<?xml version="1.0" encoding="UTF-8" standalone="no"?>
<!-- Created with Inkscape (http://www.inkscape.org/) -->

<svg
   xmlns:dc="http://purl.org/dc/elements/1.1/"
   xmlns:cc="http://creativecommons.org/ns#"
   xmlns:rdf="http://www.w3.org/1999/02/22-rdf-syntax-ns#"
   xmlns:svg="http://www.w3.org/2000/svg"
   xmlns="http://www.w3.org/2000/svg"
   xmlns:sodipodi="http://sodipodi.sourceforge.net/DTD/sodipodi-0.dtd"
   xmlns:inkscape="http://www.inkscape.org/namespaces/inkscape"
   width="42.333332mm"
   height="42.333332mm"
   viewBox="0 0 150 149.99999"
   id="svg11935"
   version="1.1"
   inkscape:version="0.91 r13725"
   sodipodi:docname="fa-angellist-square.svg">
  <defs
     id="defs11937" />
  <sodipodi:namedview
     id="base"
     pagecolor="#ffffff"
     bordercolor="#666666"
     borderopacity="1.0"
     inkscape:pageopacity="0.0"
     inkscape:pageshadow="2"
     inkscape:zoom="0.98994949"
     inkscape:cx="-153.7465"
     inkscape:cy="59.479397"
     inkscape:document-units="px"
     inkscape:current-layer="layer1"
     showgrid="false"
     fit-margin-top="0"
     fit-margin-left="0"
     fit-margin-right="0"
     fit-margin-bottom="0"
     inkscape:window-width="1366"
     inkscape:window-height="740"
     inkscape:window-x="0"
     inkscape:window-y="28"
     inkscape:window-maximized="1" />
  <metadata
     id="metadata11940">
    <rdf:RDF>
      <cc:Work
         rdf:about="">
        <dc:format>image/svg+xml</dc:format>
        <dc:type
           rdf:resource="http://purl.org/dc/dcmitype/StillImage" />
        <dc:title></dc:title>
      </cc:Work>
    </rdf:RDF>
  </metadata>
  <g
     inkscape:label="Layer 1"
     inkscape:groupmode="layer"
     id="layer1"
     transform="translate(-630.71429,-497.36221)">
    <path
       style="opacity:1;fill:#000000;fill-opacity:1;fill-rule:nonzero;stroke:none;stroke-width:1;stroke-linecap:butt;stroke-linejoin:miter;stroke-miterlimit:4;stroke-dasharray:none;stroke-dashoffset:0;stroke-opacity:1"
       d="m 658.21429,497.36221 c -15.235,0 -27.5,12.265 -27.5,27.5 l 0,94.99999 c 0,15.235 12.265,27.5 27.5,27.5 l 95,0 c 15.235,0 27.5,-12.265 27.5,-27.5 l 0,-94.99999 c 0,-15.235 -12.265,-27.5 -27.5,-27.5 l -95,0 z m 34.51757,24.9043 c 7.8125,0 16.68668,28.12471 18.58399,33.70507 2.45536,-6.13839 10.15597,-31.86327 18.86132,-31.86327 5.46876,0 8.53712,4.35323 8.53712,9.54296 0,5.91518 -6.5851,24.3298 -8.87305,30.6914 9.375,2.28795 10.71485,9.8764 10.71485,18.30273 0,22.32144 -14.23047,39.6211 -37.27735,39.6211 -4.24107,0 -8.4255,-0.83705 -12.44335,-2.34375 -10.60269,-4.01786 -20.48048,-14.89927 -20.48048,-26.67383 0,-7.25447 2.78963,-12.05273 9.98829,-14.00587 -0.61384,-1.6183 -1.5625,-4.07476 -1.5625,-5.80467 0,-4.5759 5.637,-10.26758 10.21289,-10.26758 1.33928,0 2.67857,0.39145 3.90625,0.83789 -2.34375,-6.64064 -9.0957,-25.33482 -9.0957,-31.64064 0,-5.63614 2.84513,-10.10154 8.92772,-10.10154 z m -0.61327,6.36132 c -1.5067,0 -2.17579,1.78682 -2.17579,3.07031 0,5.69196 6.75251,23.43611 8.87305,29.07226 0.78125,-0.44642 1.78571,-0.55663 2.73437,-0.55663 1.33929,0 2.84432,0.16768 4.1836,0.27928 l -6.75196,-19.58788 c -0.72544,-2.12053 -3.96149,-12.27734 -6.86327,-12.27734 z m 38.05858,2.17772 c -3.125,0 -6.4746,10.15515 -7.25585,12.5547 l -6.36133,18.30469 6.5293,1.17186 c 1.67411,-4.57588 9.20704,-25.1674 9.20704,-28.90625 0,-1.39507 -0.44504,-3.125 -2.11916,-3.125 z m -25.61522,35.65822 c -0.78125,0 -2.12054,0.0553 -2.73438,0.61328 -0.66965,0.27902 -0.66797,1.33928 -0.66797,1.95312 0,8.53795 18.02456,7.75586 23.4375,7.75586 1.06027,0 1.56082,0.2793 2.23047,1.06055 0.72545,0.89286 0.94894,1.95424 1.06055,3.07031 -1.4509,1.4509 -3.4601,2.28823 -5.35742,3.01366 -1.84153,0.66965 -3.62696,1.39455 -5.18946,2.56642 -4.29688,3.125 -8.5371,8.48131 -8.5371,14.00586 0,3.45982 2.06445,6.41825 2.06445,9.82227 0,0.0558 -0.39063,1.28375 -0.39063,1.45117 -6.36161,-0.44643 -7.92327,-6.75335 -8.14649,-12.05469 -0.66963,0.16741 -1.56361,0.11137 -2.28906,0.11137 0.11163,0.39063 0.11138,0.78125 0.11138,1.17188 0,4.07366 -3.62695,7.03125 -7.5332,7.03125 -6.02679,0 -14.00587,-7.08621 -14.00587,-13.22461 0,-1.6741 0.72574,-2.62222 1.8418,-3.73828 1.11608,1.39509 2.28739,2.78934 3.34767,4.24024 1.6183,2.17634 4.40847,5.80467 7.42187,5.80467 0.78125,0 2.2871,-0.67047 2.2871,-1.61913 0,-2.51117 -9.15066,-14.28515 -11.38281,-14.28515 -3.51563,0 -5.41406,4.63141 -5.41406,7.5332 0,2.00893 0.67105,3.96122 1.39648,5.80273 4.40849,10.8817 14.34013,17.24415 25.94727,17.24415 8.48215,0 15.6264,-3.23633 21.31836,-9.48633 6.02679,-6.69643 8.48048,-14.95537 8.48048,-23.82813 0,-3.125 0.0569,-8.09207 -2.39845,-10.32422 -4.68751,-4.12947 -20.59263,-5.6914 -26.89843,-5.6914 z m -15.06641,3.45898 c -1.5067,0 -3.96094,2.6222 -3.96094,4.1289 0,4.07367 10.93611,19.08595 15.00976,19.08595 1.11608,0 2.06446,-1.22796 2.06446,-2.23243 0,-1.28348 -1.28292,-4.46372 -1.78516,-5.6914 -1.45089,-3.73884 -6.75222,-15.29102 -11.32812,-15.29102 z m 16.74218,11.77539 c 0.61384,1.61831 1.28182,3.23605 1.83985,4.91016 1.22768,-1.3951 2.512,-2.67801 3.96289,-3.73828 -1.95312,-0.39063 -3.90541,-0.55804 -5.80274,-1.17188 z"
       id="rect11860"
       inkscape:connector-curvature="0"
       inkscape:export-xdpi="90"
       inkscape:export-ydpi="90"
       inkscape:export-filename="/home/clarias/Documents/Projects/Development Projects/angellist/fa-angellist-square" />
  </g>
</svg>
